<?xml version="1.0" encoding="UTF-8"?>
<svg version="1.1" xmlns="http://www.w3.org/2000/svg" width="256" height="256">
    <path d="M0 0 C2.82929651 2.17969335 3.87615364 3.40007839 4.60538387 6.93252754 C4.67345666 8.61155065 4.67345666 8.61155065 4.74290466 10.32449341 C4.79816755 11.5739185 4.85343044 12.82334358 4.91036797 14.11063004 C5.05404587 20.34519268 5.13082346 26.57178815 5.11352539 32.80810547 C5.11324241 34.22887164 5.11340341 35.64963796 5.1139679 37.07040405 C5.11425155 40.8793841 5.10842547 44.68833182 5.10139394 48.49730444 C5.09508771 52.49577 5.09455091 56.49423653 5.09336853 60.4927063 C5.09027645 68.04293133 5.08209204 75.59314166 5.07201904 83.14336026 C5.06079151 91.74811409 5.05533081 100.35286867 5.05032361 108.95762801 C5.03990736 126.63842697 5.02234957 144.3192123 5 162 C5.66985428 161.32792511 6.33970856 160.65585022 7.02986145 159.96340942 C13.3395358 153.63347307 19.6518416 147.30617147 25.96674061 140.98144722 C29.21328874 137.72967806 32.45889905 134.47698419 35.70239258 131.22216797 C38.83192039 128.08178365 41.96387676 124.94384051 45.0975399 121.80758286 C46.29332179 120.60995172 47.48822242 119.41144003 48.68223 118.21203995 C50.35330085 116.53372207 52.02746293 114.85854768 53.70239258 113.18408203 C54.19654663 112.6863327 54.69070068 112.18858337 55.1998291 111.67575073 C60.7259709 106.16617771 60.7259709 106.16617771 64.875 105.625 C68.81601525 106.09792183 70.321833 107.09227583 73 110 C74.14623134 113.36705456 74.45610107 115.067114 72.87954712 118.29171753 C70.52962511 121.67777395 67.83012152 124.48082804 64.92724609 127.39501953 C64.31703613 128.0151593 63.70682617 128.63529907 63.078125 129.27423096 C61.06546016 131.31601222 59.04516975 133.35001146 57.0234375 135.3828125 C55.61438867 136.80337387 54.20534125 138.22393664 52.79629517 139.64450073 C49.84284476 142.61893447 46.88478445 145.58870435 43.92431641 148.55615234 C40.14135904 152.35007716 36.37731031 156.16219147 32.61743736 159.9789753 C29.71407165 162.9196793 26.79728781 165.84679329 23.87672806 168.77041245 C22.48355852 170.1696159 21.09536931 171.57379735 19.71241379 172.98309708 C17.7719642 174.95785203 15.81323794 176.91259044 13.84912109 178.86376953 C13.00705612 179.73347885 13.00705612 179.73347885 12.14797974 180.62075806 C7.45484662 185.21824708 2.22577496 187.77969338 -4.41028881 188.12565804 C-16.27194493 187.77757003 -25.51359652 174.83111305 -33.30859375 167.0625 C-34.68474903 165.6953229 -36.06097601 164.32821797 -37.43727112 162.96118164 C-40.30782861 160.1070414 -43.17402892 157.24860201 -46.0378418 154.38769531 C-49.70691755 150.72402922 -53.39192562 147.07683952 -57.08097744 143.43330383 C-59.92297546 140.62102936 -62.75367271 137.79758678 -65.58134651 134.97091675 C-66.93564075 133.62082565 -68.29405254 132.27485173 -69.65664482 130.93313599 C-71.55713525 129.05949065 -73.44119328 127.17069791 -75.32202148 125.27734375 C-76.16739471 124.45422195 -76.16739471 124.45422195 -77.02984619 123.61447144 C-80.35662944 120.22418458 -81.88441529 117.79501508 -82 113 C-80.39588152 109.47093933 -79.25840638 108.17227092 -76 106 C-73.3125 105.4375 -73.3125 105.4375 -70 106 C-62.78270351 111.12511709 -56.73085944 118.13963571 -50.5 124.40234375 C-49.41306197 125.49115104 -48.32589985 126.57973466 -47.23852539 127.66810608 C-44.40216777 130.50824889 -41.56882836 133.3513836 -38.73614502 136.19519043 C-35.83505747 139.10657891 -32.93107287 142.01507467 -30.02734375 144.92382812 C-24.34875182 150.6130867 -18.67335084 156.30551499 -13 162 C-13.00092179 161.41658026 -13.00184359 160.83316051 -13.00279331 160.23206139 C-13.02517763 145.83160878 -13.04156804 131.43115721 -13.05181217 117.03069115 C-13.0569017 110.0658644 -13.06383835 103.10104965 -13.07543945 96.13623047 C-13.10465002 78.09062141 -13.09961387 60.04543245 -13 42 C-12.99416649 40.92682022 -12.98833298 39.85364044 -12.98232269 38.74794006 C-12.94740025 33.09831108 -12.88916278 27.44996994 -12.78719902 21.80113602 C-12.76016806 20.19028837 -12.73949376 18.57931928 -12.72572517 16.96830368 C-12.70532585 14.81474081 -12.66020938 12.66322453 -12.60717773 10.51025391 C-12.58662827 9.33621002 -12.5660788 8.16216614 -12.54490662 6.95254517 C-11.88788413 3.39250659 -10.79903159 2.22040639 -8 0 C-5.02898609 -1.48550695 -3.16565278 -0.82306972 0 0 Z "
          fill="#FFFFFF" transform="translate(132,35)"/>
    <path d="M0 0 C0.33 0.99 0.66 1.98 1 3 C-1.2375915 5.32478781 -3.49204232 7.63250154 -5.75 9.9375 C-6.70132813 10.9265332 -6.70132813 10.9265332 -7.671875 11.93554688 C-8.6 12.87817383 -8.6 12.87817383 -9.546875 13.83984375 C-10.39523926 14.71177368 -10.39523926 14.71177368 -11.26074219 15.60131836 C-13.17525154 17.14093431 -14.59987554 17.59308235 -17 18 C-11.72898586 11.58930713 -5.90871848 5.81409488 0 0 Z "
          fill="#FFFFFF" transform="translate(153,181)"/>
    <path d="M0 0 C0.33 0.66 0.66 1.32 1 2 C-6.29840547 10.44646925 -6.29840547 10.44646925 -10 14 C-10.99 13.67 -11.98 13.34 -13 13 C-8.71 8.71 -4.42 4.42 0 0 Z "
          fill="#FFFFFF" transform="translate(175,159)"/>
    <path d="M0 0 C0.33 0.99 0.66 1.98 1 3 C-2.66666667 6.66666667 -6.33333333 10.33333333 -10 14 C-10.99 13.67 -11.98 13.34 -13 13 C-8.71 8.71 -4.42 4.42 0 0 Z "
          fill="#FFFFFF" transform="translate(189,145)"/>
    <path d="M0 0 C0.33 0.66 0.66 1.32 1 2 C-0.98 4.31 -2.96 6.62 -5 9 C-5.66 8.34 -6.32 7.68 -7 7 C-4.69 4.69 -2.38 2.38 0 0 Z "
          fill="#FFFFFF" transform="translate(161,173)"/>
</svg>
