<?xml version="1.0" encoding="UTF-8"?>
<svg version="1.1" xmlns="http://www.w3.org/2000/svg" width="256" height="256">
    <path d="M0 0 C7.51984424 5.60448787 14.00095156 12.40633329 20.62828064 19.01123047 C22.00443592 20.37840756 23.3806629 21.7455125 24.75695801 23.11254883 C27.6275155 25.96668907 30.49371581 28.82512846 33.35752869 31.68603516 C37.02660444 35.34970125 40.71161251 38.99689095 44.40066433 42.64042664 C47.24266235 45.45270111 50.0733596 48.27614369 52.9010334 51.10281372 C54.25532764 52.45290482 55.61373943 53.79887873 56.97633171 55.14059448 C58.87682214 57.01423981 60.76088017 58.90303256 62.64170837 60.79638672 C63.20529053 61.34513458 63.76887268 61.89388245 64.34953308 62.45925903 C67.67631633 65.84954588 69.20410218 68.27871539 69.31968689 73.07373047 C67.71556841 76.60279113 66.57809327 77.90145955 63.31968689 80.07373047 C60.63218689 80.63623047 60.63218689 80.63623047 57.31968689 80.07373047 C50.1023904 74.94861338 44.05054633 67.93409476 37.81968689 61.67138672 C36.73274886 60.58257943 35.64558674 59.49399581 34.55821228 58.40562439 C31.72185466 55.56548157 28.88851525 52.72234687 26.05583191 49.87854004 C23.15474435 46.96715156 20.25075976 44.0586558 17.34703064 41.14990234 C11.66843871 35.46064377 5.99303773 29.76821548 0.31968689 24.07373047 C0.32060868 24.65715021 0.32153048 25.24056995 0.3224802 25.84166908 C0.34486452 40.24212169 0.36125493 54.64257326 0.37149906 69.04303932 C0.37658859 76.00786607 0.38352524 82.97268082 0.39512634 89.9375 C0.42433691 107.98310906 0.41930076 126.02829802 0.31968689 144.07373047 C0.31385338 145.14691025 0.30801987 146.22009003 0.30200958 147.32579041 C0.26708714 152.97541939 0.20884967 158.62376053 0.10688591 164.27259445 C0.07985495 165.8834421 0.05918065 167.49441119 0.04541206 169.10542679 C0.02501274 171.25898966 -0.02010373 173.41050594 -0.07313538 175.56347656 C-0.09368484 176.73752045 -0.11423431 177.91156433 -0.13540649 179.1211853 C-0.79532773 182.69693058 -1.83051613 183.87997634 -4.68031311 186.07373047 C-8.36483029 187.24964021 -9.96285586 187.40854385 -13.49281311 185.76123047 C-15.68031311 184.07373047 -15.68031311 184.07373047 -16.68031311 182.07373047 C-17.77260312 172.50366674 -17.82052024 162.88495127 -17.7938385 153.265625 C-17.79355552 151.84485883 -17.79371652 150.42409251 -17.79428101 149.00332642 C-17.79456466 145.19434637 -17.78873858 141.38539865 -17.78170705 137.57642603 C-17.77540082 133.57796047 -17.77486402 129.57949394 -17.77368164 125.58102417 C-17.77058956 118.03079914 -17.76240515 110.48058881 -17.75233215 102.93037021 C-17.74110462 94.32561638 -17.73564392 85.7208618 -17.73063672 77.11610246 C-17.72022047 59.4353035 -17.70266268 41.75451817 -17.68031311 24.07373047 C-18.35016739 24.74580536 -19.02002167 25.41788025 -19.71017456 26.11032104 C-26.01984891 32.4402574 -32.33215471 38.767559 -38.64705372 45.09228325 C-41.89360185 48.34405241 -45.13921216 51.59674628 -48.38270569 54.8515625 C-51.5122335 57.99194681 -54.64418987 61.12988996 -57.77785301 64.26614761 C-58.9736349 65.46377875 -60.16853553 66.66229044 -61.36254311 67.86169052 C-63.03361396 69.5400084 -64.70777604 71.21518278 -66.38270569 72.88964844 C-66.87685974 73.38739777 -67.37101379 73.88514709 -67.88014221 74.39797974 C-73.40628401 79.90755276 -73.40628401 79.90755276 -77.55531311 80.44873047 C-81.49632836 79.97580864 -83.00214612 78.98145463 -85.68031311 76.07373047 C-86.82654445 72.70667591 -87.13641418 71.00661647 -85.55986023 67.78201294 C-83.20993822 64.39595652 -80.51043464 61.59290243 -77.6075592 58.67871094 C-76.99734924 58.05857117 -76.38713928 57.4384314 -75.75843811 56.79949951 C-73.74577327 54.75771825 -71.72548286 52.72371901 -69.70375061 50.69091797 C-68.29470178 49.2703566 -66.88565436 47.84979383 -65.47660828 46.42922974 C-62.52315787 43.454796 -59.56509756 40.48502612 -56.60462952 37.51757812 C-52.82167215 33.72365331 -49.05762342 29.911539 -45.29775047 26.09475517 C-42.39438476 23.15405117 -39.47760092 20.22693718 -36.55704117 17.30331802 C-35.16387163 15.90411457 -33.77568242 14.49993312 -32.3927269 13.09063339 C-30.45227731 11.11587844 -28.49355105 9.16114003 -26.5294342 7.20996094 C-25.96805756 6.63015472 -25.40668091 6.05034851 -24.82829285 5.45297241 C-18.39437909 -0.84982086 -8.51198282 -4.69221498 0 0 Z "
          fill="#FFFFFF" transform="translate(136.68031311035156,34.92626953125)"/>
</svg>
