<svg fill="#000000" width="800px" height="800px" version="1.1" viewBox="144 144 512 512" xmlns="http://www.w3.org/2000/svg">
    <g>
        <path d="m560.9 229.41h-43.688v-32.039c0-4.7188-1.875-9.2422-5.2109-12.578-3.3398-3.3359-7.8633-5.2109-12.582-5.2109h-38.336c-4.7188 0-9.2422 1.875-12.582 5.2109-3.3359 3.3359-5.2109 7.8594-5.2109 12.578v32.039h-86.594l0.003906-32.039c0-4.7188-1.875-9.2422-5.2109-12.578-3.3359-3.3359-7.8633-5.2109-12.582-5.2109h-38.414c-4.7188 0-9.2422 1.875-12.578 5.2109-3.3398 3.3359-5.2109 7.8594-5.2109 12.578v32.039h-43.613c-9.1719 0.023438-17.961 3.6797-24.441 10.176-6.4766 6.4922-10.117 15.289-10.117 24.461v321.81c0.023438 9.1602 3.668 17.938 10.145 24.414 6.4766 6.4766 15.254 10.125 24.414 10.145h321.81c9.1602-0.019531 17.938-3.668 24.414-10.145 6.4766-6.4766 10.125-15.254 10.145-24.414v-321.81c0-9.1719-3.6367-17.969-10.117-24.461-6.4805-6.4961-15.27-10.152-24.441-10.176zm-104.38-32.039c0-2.5195 2.043-4.5625 4.5664-4.5625h38.336c2.5234 0 4.5664 2.043 4.5664 4.5625v77.305c0 2.5234-2.043 4.5664-4.5664 4.5664h-38.336c-2.5234 0-4.5664-2.043-4.5664-4.5664zm-160.59 0c0-2.5195 2.043-4.5625 4.5664-4.5625h38.414c2.5039 0.039062 4.5234 2.0586 4.5664 4.5625v77.305c-0.042968 2.5039-2.0625 4.5234-4.5664 4.5664h-38.414c-2.5234 0-4.5664-2.043-4.5664-4.5664zm-78.246 66.676c-0.023438-5.6914 2.2227-11.156 6.2422-15.191 4.0195-4.0312 9.4766-6.2969 15.168-6.2969h43.613v32.039c0 4.7188 1.8711 9.2422 5.2109 12.578 3.3359 3.3359 7.8594 5.2109 12.578 5.2109h38.414c4.7188 0 9.2461-1.875 12.582-5.2109 3.3359-3.3359 5.2109-7.8594 5.2109-12.578v-32.039h86.594v32.039h-0.003906c0 4.7188 1.875 9.2422 5.2109 12.578 3.3398 3.3359 7.8633 5.2109 12.582 5.2109h38.336c4.7188 0 9.2422-1.875 12.582-5.2109 3.3359-3.3359 5.2109-7.8594 5.2109-12.578v-32.039h43.691-0.003906c5.6797 0 11.125 2.2539 15.141 6.2695s6.2734 9.4648 6.2734 15.141v59.199h-364.63zm364.63 321.81c-0.023437 5.668-2.2891 11.094-6.3008 15.09-4.0117 4-9.4492 6.2461-15.113 6.2461h-321.81c-5.6641 0-11.098-2.2461-15.113-6.2461-4.0117-3.9961-6.2773-9.4219-6.2969-15.09v-249.38h364.63z"/>
        <path d="m265.7 461.95h51.957-0.003906c3.7188 0 7.2812-1.4766 9.9102-4.1055 2.625-2.6289 4.1016-6.1914 4.1016-9.9102v-51.957 0.003906c0-3.7188-1.4766-7.2812-4.1016-9.9102-2.6289-2.625-6.1914-4.1016-9.9102-4.1016h-51.957 0.003906c-7.7539 0-14.051 6.2578-14.094 14.012v51.957-0.003906c0.042969 7.7539 6.3398 14.016 14.094 14.016zm-0.86719-65.969c0-0.48047 0.38672-0.86719 0.86719-0.86719h51.957-0.003906c0.44922 0.042968 0.78906 0.41797 0.78906 0.86719v51.957-0.003906c-0.039062 0.42188-0.37109 0.75391-0.78906 0.78906h-51.957 0.003906c-0.4375-0.03125-0.79688-0.35547-0.86719-0.78906z"/>
        <path d="m374.02 461.95h51.957c3.7148 0 7.2812-1.4766 9.9062-4.1055 2.6289-2.6289 4.1055-6.1914 4.1055-9.9102v-51.957 0.003906c0-3.7188-1.4766-7.2812-4.1055-9.9102-2.625-2.625-6.1914-4.1016-9.9062-4.1016h-51.957c-7.7383 0-14.012 6.2734-14.012 14.012v51.957-0.003906c0 3.7188 1.4766 7.2812 4.1055 9.9102 2.6289 2.6289 6.1914 4.1055 9.9062 4.1055zm-0.86719-65.969h0.003906c0-0.48047 0.38672-0.86719 0.86328-0.86719h51.957c0.44531 0.042968 0.78906 0.41797 0.78516 0.86719v51.957-0.003906c-0.035157 0.42188-0.36719 0.75391-0.78516 0.78906h-51.957c-0.44922 0-0.82422-0.33984-0.86328-0.78906z"/>
        <path d="m482.34 461.95h51.957c3.7148 0 7.2773-1.4766 9.9062-4.1055s4.1055-6.1914 4.1055-9.9102v-51.957 0.003906c0-3.7188-1.4766-7.2812-4.1055-9.9102-2.6289-2.625-6.1914-4.1016-9.9062-4.1016h-51.957c-7.7383 0-14.012 6.2734-14.012 14.012v51.957-0.003906c0 3.7188 1.4766 7.2812 4.1055 9.9102 2.625 2.6289 6.1914 4.1055 9.9062 4.1055zm-0.86719-65.969c0-0.48047 0.39062-0.86719 0.86719-0.86719h51.957c0.44531 0.042968 0.78906 0.41797 0.78516 0.86719v51.957-0.003906c-0.035156 0.42188-0.36719 0.75391-0.78516 0.78906h-51.957c-0.44922 0-0.82422-0.33984-0.86719-0.78906z"/>
        <path d="m265.7 574.6h51.957-0.003906c3.7188 0 7.2812-1.4766 9.9102-4.1055 2.625-2.6289 4.1016-6.1914 4.1016-9.9102v-51.953c0.042969-3.7422-1.4141-7.3477-4.0469-10.012-2.6328-2.6602-6.2188-4.1602-9.9648-4.1602h-51.957 0.003906c-7.7539 0-14.051 6.2617-14.094 14.016v51.957-0.003906c-0.019531 3.75 1.457 7.3555 4.1016 10.016 2.6445 2.6602 6.2383 4.1562 9.9922 4.1562zm-0.86719-65.969c0.035156-0.46094 0.40234-0.82812 0.86719-0.86719h51.957-0.003906c0.44922 0.042969 0.78906 0.41797 0.78906 0.86719v51.957-0.003906c-0.039062 0.42187-0.37109 0.75391-0.78906 0.78906h-51.957 0.003906c-0.44922 0-0.82812-0.33984-0.86719-0.78906z"/>
        <path d="m374.02 574.6h51.957c3.7148 0 7.2812-1.4766 9.9062-4.1055 2.6289-2.6289 4.1055-6.1914 4.1055-9.9102v-51.953c0.042969-3.7422-1.4141-7.3477-4.0469-10.012-2.6328-2.6602-6.2227-4.1602-9.9648-4.1602h-51.957c-7.7383 0-14.012 6.2734-14.012 14.016v51.957-0.003906c-0.042968 3.7422 1.418 7.3477 4.0469 10.012 2.6328 2.6602 6.2227 4.1602 9.9648 4.1602zm-0.86719-65.969h0.003906c0-0.48047 0.38672-0.86719 0.86328-0.86719h51.957c0.22266 0 0.4375 0.09375 0.58594 0.25781 0.14844 0.16406 0.22266 0.38672 0.19922 0.60937v51.957-0.003906c0 0.21094-0.082031 0.41016-0.23047 0.55859-0.14453 0.14844-0.34766 0.23047-0.55469 0.23047h-51.957c-0.22266 0.023438-0.44141-0.050781-0.60547-0.19922-0.16797-0.15234-0.26172-0.36328-0.25781-0.58984z"/>
        <path d="m482.34 574.6h51.957c3.7148 0 7.2773-1.4766 9.9062-4.1055s4.1055-6.1914 4.1055-9.9102v-51.953c0.039062-3.7422-1.418-7.3477-4.0508-10.012-2.6289-2.6602-6.2188-4.1602-9.9609-4.1602h-51.957c-7.7383 0-14.012 6.2734-14.012 14.016v51.957-0.003906c-0.042969 3.7422 1.4141 7.3477 4.0469 10.012 2.6328 2.6602 6.2227 4.1602 9.9648 4.1602zm-0.86719-65.969c0-0.48047 0.39062-0.86719 0.86719-0.86719h51.957c0.44531 0.042969 0.78906 0.41797 0.78516 0.86719v51.957-0.003906c0 0.21094-0.082031 0.41016-0.23047 0.55859-0.14844 0.14844-0.34766 0.23047-0.55469 0.23047h-51.957c-0.22266 0.023438-0.44141-0.050781-0.60938-0.19922-0.16406-0.15234-0.25781-0.36328-0.25781-0.58984z"/>
    </g>
</svg>